<svg xmlns="http://www.w3.org/2000/svg" width="726" height="279" fill="none"><rect width="220.667" height="76" x="24" y="16" fill="#0A0A0A" rx="4"/><rect width="4" height="16" x="40" y="33" fill="#8085FF" rx="2"/><path fill="#fff" d="M52.64 46.14c-.785 0-1.438-.121-1.96-.364-.514-.243-.91-.57-1.19-.98a3.68 3.68 0 0 1-.56-1.386h1.315c.103.43.336.798.7 1.106.364.299.929.448 1.694.448.784 0 1.377-.15 1.778-.448.41-.299.616-.667.616-1.106 0-.364-.084-.653-.252-.868-.168-.224-.448-.41-.84-.56-.383-.159-.905-.313-1.568-.462-.728-.159-1.325-.345-1.792-.56-.467-.215-.812-.504-1.036-.868-.224-.364-.336-.845-.336-1.442 0-.485.135-.92.406-1.302.28-.392.677-.705 1.19-.938.514-.233 1.125-.35 1.834-.35.7 0 1.283.117 1.75.35.467.233.83.546 1.092.938.261.383.434.817.518 1.302h-1.316a1.873 1.873 0 0 0-.602-.994c-.299-.28-.78-.42-1.442-.42-.672 0-1.195.14-1.568.42-.364.27-.546.602-.546.994 0 .513.192.891.574 1.134.383.233.994.443 1.834.63.607.13 1.125.28 1.554.448.439.168.794.369 1.064.602.28.224.48.495.602.812.13.317.196.695.196 1.134 0 .504-.15.966-.448 1.386-.29.41-.71.737-1.26.98s-1.218.364-2.002.364Zm8.464 0c-.662 0-1.232-.121-1.708-.364a2.649 2.649 0 0 1-1.078-.994c-.242-.42-.364-.9-.364-1.442 0-.355.056-.686.168-.994a3.06 3.06 0 0 1 .56-.924c.262-.308.62-.635 1.078-.98a8.918 8.918 0 0 1-.672-.882 2.23 2.23 0 0 1-.294-.686 3.366 3.366 0 0 1-.07-.714c0-.401.094-.756.28-1.064.187-.317.448-.57.784-.756.336-.187.728-.28 1.176-.28.448 0 .84.093 1.176.28.336.187.598.439.784.756.187.308.28.663.28 1.064 0 .233-.051.471-.154.714-.093.243-.261.504-.504.784-.242.27-.592.579-1.05.924l2.366 2.632c.122-.27.21-.555.266-.854.056-.308.084-.635.084-.98h1.232c0 .56-.065 1.073-.196 1.54a4.496 4.496 0 0 1-.532 1.26L66.354 46h-1.596l-.812-.882a4.043 4.043 0 0 1-1.288.756 4.418 4.418 0 0 1-1.554.266Zm0-1.092c.41 0 .784-.065 1.12-.196a2.92 2.92 0 0 0 .938-.616l-2.66-2.954c-.373.28-.653.532-.84.756a1.822 1.822 0 0 0-.378.63c-.065.205-.098.43-.098.672 0 .504.164.915.49 1.232.336.317.812.476 1.428.476Zm-1.148-6.888c0 .233.047.462.14.686.103.215.322.513.658.896.374-.28.644-.513.812-.7.178-.187.29-.35.336-.49.047-.14.07-.27.07-.392a.943.943 0 0 0-.294-.714.943.943 0 0 0-.714-.294.972.972 0 0 0-.714.294.972.972 0 0 0-.294.714ZM67.893 46v-9.8h3.36c.868 0 1.578.13 2.128.392.56.252.975.607 1.246 1.064.27.448.406.966.406 1.554 0 .579-.135 1.097-.406 1.554-.27.457-.686.817-1.246 1.078-.55.252-1.26.378-2.128.378H69.21V46h-1.316Zm1.316-4.928h1.974c.933 0 1.587-.168 1.96-.504.383-.336.574-.789.574-1.358 0-.57-.191-1.022-.574-1.358-.373-.336-1.026-.504-1.96-.504H69.21v3.724Zm14.018 5.068c-.532 0-.994-.07-1.386-.21a2.96 2.96 0 0 1-.994-.574 2.627 2.627 0 0 1-.602-.812 2.508 2.508 0 0 1-.238-.924h1.316c.047.355.233.667.56.938.336.27.784.406 1.344.406.635 0 1.134-.196 1.498-.588.364-.401.546-.957.546-1.666 0-.541-.098-.975-.294-1.302a1.749 1.749 0 0 0-.77-.728 2.218 2.218 0 0 0-.98-.224c-.504 0-.9.093-1.19.28-.28.187-.495.401-.644.644h-1.176V36.2h5.81v1.148h-4.494v2.73a2.31 2.31 0 0 1 .84-.602 2.77 2.77 0 0 1 1.064-.196c.653 0 1.213.13 1.68.392.467.261.826.649 1.078 1.162.261.504.392 1.13.392 1.876 0 .7-.145 1.307-.434 1.82-.28.513-.672.91-1.176 1.19-.504.28-1.087.42-1.75.42Zm8.401 0a3.77 3.77 0 0 1-1.344-.238 2.87 2.87 0 0 1-1.12-.826c-.327-.383-.583-.896-.77-1.54-.177-.653-.266-1.465-.266-2.436v-.28c0-.905.089-1.661.266-2.268.187-.616.443-1.106.77-1.47a2.85 2.85 0 0 1 1.12-.784 3.77 3.77 0 0 1 1.344-.238c.476 0 .924.08 1.344.238.42.159.793.42 1.12.784.327.364.579.854.756 1.47.187.607.28 1.363.28 2.268v.28c0 .97-.093 1.783-.28 2.436-.177.644-.43 1.157-.756 1.54a2.87 2.87 0 0 1-1.12.826 3.77 3.77 0 0 1-1.344.238Zm0-1.148c.299 0 .579-.051.84-.154.261-.112.49-.308.686-.588.205-.29.364-.686.476-1.19.121-.513.182-1.167.182-1.96v-.28c0-.97-.103-1.717-.308-2.24-.196-.523-.462-.882-.798-1.078a2.056 2.056 0 0 0-1.078-.294 2.13 2.13 0 0 0-1.092.294c-.327.196-.593.555-.798 1.078-.196.523-.294 1.27-.294 2.24v.28c0 .793.056 1.447.168 1.96.121.504.28.9.476 1.19.205.28.439.476.7.588.27.103.55.154.84.154Zm8.682 1.148a3.77 3.77 0 0 1-1.344-.238 2.87 2.87 0 0 1-1.12-.826c-.327-.383-.584-.896-.77-1.54-.178-.653-.266-1.465-.266-2.436v-.28c0-.905.088-1.661.266-2.268.186-.616.443-1.106.77-1.47a2.85 2.85 0 0 1 1.12-.784 3.77 3.77 0 0 1 1.344-.238c.476 0 .924.08 1.344.238.42.159.793.42 1.12.784.326.364.578.854.756 1.47.186.607.28 1.363.28 2.268v.28c0 .97-.094 1.783-.28 2.436-.178.644-.43 1.157-.756 1.54a2.87 2.87 0 0 1-1.12.826 3.77 3.77 0 0 1-1.344.238Zm0-1.148c.298 0 .578-.051.84-.154.261-.112.49-.308.686-.588.205-.29.364-.686.476-1.19.121-.513.182-1.167.182-1.96v-.28c0-.97-.103-1.717-.308-2.24-.196-.523-.462-.882-.798-1.078a2.057 2.057 0 0 0-1.078-.294 2.13 2.13 0 0 0-1.092.294c-.327.196-.593.555-.798 1.078-.196.523-.294 1.27-.294 2.24v.28c0 .793.056 1.447.168 1.96.121.504.28.9.476 1.19.205.28.438.476.7.588.27.103.55.154.84.154ZM109.551 46v-9.8h6.3v1.148h-4.984v3.038h4.564v1.148h-4.564v3.318h4.984V46h-6.3Zm10.964 0v-8.652h-3.402V36.2h8.12v1.148h-3.402V46h-1.316Zm6.4 0v-9.8h6.3v1.148h-4.984v3.178h4.564v1.148h-4.564V46h-1.316Zm23.328.14c-.532 0-.994-.07-1.386-.21a2.953 2.953 0 0 1-.994-.574 2.616 2.616 0 0 1-.602-.812 2.494 2.494 0 0 1-.238-.924h1.316c.046.355.233.667.56.938.336.27.784.406 1.344.406.634 0 1.134-.196 1.498-.588.364-.401.546-.957.546-1.666 0-.541-.098-.975-.294-1.302a1.75 1.75 0 0 0-.77-.728 2.22 2.22 0 0 0-.98-.224c-.504 0-.901.093-1.19.28-.28.187-.495.401-.644.644h-1.176V36.2h5.81v1.148h-4.494v2.73c.242-.27.522-.471.84-.602.317-.13.672-.196 1.064-.196.653 0 1.213.13 1.68.392.466.261.826.649 1.078 1.162.261.504.392 1.13.392 1.876 0 .7-.145 1.307-.434 1.82-.28.513-.672.91-1.176 1.19-.504.28-1.088.42-1.75.42Zm8.401 0a3.77 3.77 0 0 1-1.344-.238 2.865 2.865 0 0 1-1.12-.826c-.327-.383-.584-.896-.77-1.54-.178-.653-.266-1.465-.266-2.436v-.28c0-.905.088-1.661.266-2.268.186-.616.443-1.106.77-1.47.326-.364.7-.625 1.12-.784a3.77 3.77 0 0 1 1.344-.238c.476 0 .924.08 1.344.238.42.159.793.42 1.12.784.326.364.578.854.756 1.47.186.607.28 1.363.28 2.268v.28c0 .97-.094 1.783-.28 2.436-.178.644-.43 1.157-.756 1.54a2.87 2.87 0 0 1-1.12.826 3.77 3.77 0 0 1-1.344.238Zm0-1.148c.298 0 .578-.051.84-.154.261-.112.49-.308.686-.588.205-.29.364-.686.476-1.19.121-.513.182-1.167.182-1.96v-.28c0-.97-.103-1.717-.308-2.24-.196-.523-.462-.882-.798-1.078a2.057 2.057 0 0 0-1.078-.294 2.13 2.13 0 0 0-1.092.294c-.327.196-.593.555-.798 1.078-.196.523-.294 1.27-.294 2.24v.28c0 .793.056 1.447.168 1.96.121.504.28.9.476 1.19.205.28.438.476.7.588.27.103.55.154.84.154Zm8.331 1.148c-.522 0-.994-.08-1.414-.238a2.51 2.51 0 0 1-1.022-.714c-.27-.327-.462-.733-.574-1.218h1.316c.131.327.336.574.616.742.29.168.649.252 1.078.252.448 0 .85-.112 1.204-.336.364-.224.654-.602.868-1.134.224-.532.346-1.26.364-2.184a2.223 2.223 0 0 1-1.092.98c-.457.187-.905.28-1.344.28-.653 0-1.222-.121-1.708-.364a2.77 2.77 0 0 1-1.12-1.078c-.261-.476-.392-1.05-.392-1.722v-.14c0-.625.15-1.176.448-1.652a3.161 3.161 0 0 1 1.19-1.134 3.346 3.346 0 0 1 1.652-.42c.738 0 1.372.159 1.904.476.532.317.943.807 1.232 1.47.29.653.434 1.498.434 2.534v.28c0 1.288-.168 2.324-.504 3.108-.336.775-.779 1.34-1.33 1.694a3.33 3.33 0 0 1-1.806.518Zm.182-4.746c.682 0 1.2-.173 1.554-.518.355-.345.532-.84.532-1.484v-.14c0-.635-.182-1.13-.546-1.484-.354-.355-.868-.532-1.54-.532-.681 0-1.199.173-1.554.518-.354.336-.532.835-.532 1.498v.14c0 .644.178 1.139.532 1.484.355.345.873.518 1.554.518Zm6.405 4.746a.907.907 0 0 1-.49-.14 1.006 1.006 0 0 1-.364-.35.983.983 0 0 1-.126-.49c0-.28.093-.513.28-.7a.98.98 0 0 1 .7-.28c.271 0 .499.093.686.28.196.187.294.42.294.7a.91.91 0 0 1-.14.49.904.904 0 0 1-.35.35.862.862 0 0 1-.49.14Zm6.087 0c-.522 0-.994-.08-1.414-.238a2.51 2.51 0 0 1-1.022-.714c-.27-.327-.462-.733-.574-1.218h1.316c.131.327.336.574.616.742.29.168.649.252 1.078.252.448 0 .85-.112 1.204-.336.364-.224.654-.602.868-1.134.224-.532.346-1.26.364-2.184a2.223 2.223 0 0 1-1.092.98c-.457.187-.905.28-1.344.28-.653 0-1.222-.121-1.708-.364a2.77 2.77 0 0 1-1.12-1.078c-.261-.476-.392-1.05-.392-1.722v-.14c0-.625.15-1.176.448-1.652a3.161 3.161 0 0 1 1.19-1.134 3.346 3.346 0 0 1 1.652-.42c.738 0 1.372.159 1.904.476.532.317.943.807 1.232 1.47.29.653.434 1.498.434 2.534v.28c0 1.288-.168 2.324-.504 3.108-.336.775-.779 1.34-1.33 1.694a3.33 3.33 0 0 1-1.806.518Zm.182-4.746c.682 0 1.2-.173 1.554-.518.355-.345.532-.84.532-1.484v-.14c0-.635-.182-1.13-.546-1.484-.354-.355-.868-.532-1.54-.532-.681 0-1.199.173-1.554.518-.354.336-.532.835-.532 1.498v.14c0 .644.178 1.139.532 1.484.355.345.873.518 1.554.518Zm8.645 4.746a3.77 3.77 0 0 1-1.344-.238 2.865 2.865 0 0 1-1.12-.826c-.327-.383-.584-.896-.77-1.54-.178-.653-.266-1.465-.266-2.436v-.28c0-.905.088-1.661.266-2.268.186-.616.443-1.106.77-1.47.326-.364.7-.625 1.12-.784a3.77 3.77 0 0 1 1.344-.238c.476 0 .924.08 1.344.238.42.159.793.42 1.12.784.326.364.578.854.756 1.47.186.607.28 1.363.28 2.268v.28c0 .97-.094 1.783-.28 2.436-.178.644-.43 1.157-.756 1.54a2.87 2.87 0 0 1-1.12.826 3.77 3.77 0 0 1-1.344.238Zm0-1.148c.298 0 .578-.051.84-.154.261-.112.49-.308.686-.588.205-.29.364-.686.476-1.19.121-.513.182-1.167.182-1.96v-.28c0-.97-.103-1.717-.308-2.24-.196-.523-.462-.882-.798-1.078a2.057 2.057 0 0 0-1.078-.294 2.13 2.13 0 0 0-1.092.294c-.327.196-.593.555-.798 1.078-.196.523-.294 1.27-.294 2.24v.28c0 .793.056 1.447.168 1.96.121.504.28.9.476 1.19.205.28.438.476.7.588.27.103.55.154.84.154Z"/><path fill="#F73C6B" d="M40.56 68.654v-1.148h4.2v1.148h-4.2Zm8.748 3.486c-.709 0-1.316-.121-1.82-.364a2.895 2.895 0 0 1-1.148-1.008 2.692 2.692 0 0 1-.392-1.428h1.316c0 .476.164.868.49 1.176.327.299.845.448 1.554.448.71 0 1.228-.154 1.554-.462.327-.317.49-.728.49-1.232 0-.523-.168-.943-.504-1.26-.326-.327-.84-.49-1.54-.49h-1.05V66.4h1.05c.672 0 1.158-.14 1.456-.42.299-.29.448-.686.448-1.19 0-.485-.144-.863-.434-1.134-.289-.28-.779-.42-1.47-.42-.662 0-1.148.145-1.456.434a1.38 1.38 0 0 0-.448 1.05h-1.316c0-.495.126-.943.378-1.344.252-.401.616-.719 1.092-.952.486-.243 1.069-.364 1.75-.364.691 0 1.274.121 1.75.364.486.233.85.546 1.092.938.252.392.378.821.378 1.288 0 .56-.149 1.036-.448 1.428-.289.383-.7.653-1.232.812.56.177 1.004.467 1.33.868.327.401.49.952.49 1.652 0 .495-.13.952-.392 1.372-.261.41-.644.742-1.148.994-.494.243-1.101.364-1.82.364Zm6.3 0a.907.907 0 0 1-.49-.14 1 1 0 0 1-.364-.35.983.983 0 0 1-.126-.49.95.95 0 0 1 .28-.7.98.98 0 0 1 .7-.28c.27 0 .5.093.686.28.196.187.294.42.294.7 0 .177-.047.34-.14.49a.902.902 0 0 1-.35.35.863.863 0 0 1-.49.14Zm6.437 0a3.77 3.77 0 0 1-1.344-.238 2.87 2.87 0 0 1-1.12-.826c-.327-.383-.583-.896-.77-1.54-.177-.653-.266-1.465-.266-2.436v-.28c0-.905.089-1.661.266-2.268.187-.616.443-1.106.77-1.47a2.85 2.85 0 0 1 1.12-.784 3.77 3.77 0 0 1 1.344-.238c.476 0 .924.08 1.344.238.42.159.793.42 1.12.784.327.364.579.854.756 1.47.187.607.28 1.363.28 2.268v.28c0 .97-.093 1.783-.28 2.436-.177.644-.43 1.157-.756 1.54a2.87 2.87 0 0 1-1.12.826 3.77 3.77 0 0 1-1.344.238Zm0-1.148c.299 0 .579-.051.84-.154.261-.112.49-.308.686-.588.205-.29.364-.686.476-1.19.121-.513.182-1.167.182-1.96v-.28c0-.97-.103-1.717-.308-2.24-.196-.523-.462-.882-.798-1.078a2.056 2.056 0 0 0-1.078-.294 2.13 2.13 0 0 0-1.092.294c-.327.196-.593.555-.798 1.078-.196.523-.294 1.27-.294 2.24v.28c0 .793.056 1.447.168 1.96.121.504.28.9.476 1.19.205.28.439.476.7.588.27.103.55.154.84.154Zm8.402 1.148c-.532 0-.994-.07-1.386-.21a2.96 2.96 0 0 1-.994-.574 2.627 2.627 0 0 1-.602-.812 2.508 2.508 0 0 1-.238-.924h1.316c.046.355.233.667.56.938.336.27.784.406 1.344.406.634 0 1.134-.196 1.498-.588.364-.401.546-.957.546-1.666 0-.541-.098-.975-.294-1.302a1.748 1.748 0 0 0-.77-.728 2.218 2.218 0 0 0-.98-.224c-.504 0-.9.093-1.19.28-.28.187-.495.401-.644.644h-1.176V62.2h5.81v1.148h-4.494v2.73c.242-.27.522-.471.84-.602a2.77 2.77 0 0 1 1.064-.196c.653 0 1.213.13 1.68.392.466.261.826.649 1.078 1.162.261.504.392 1.13.392 1.876 0 .7-.145 1.307-.434 1.82-.28.513-.672.91-1.176 1.19-.504.28-1.088.42-1.75.42Zm13.113-3.486v-1.148h4.2v1.148h-4.2Zm9.098 3.486a3.77 3.77 0 0 1-1.344-.238 2.87 2.87 0 0 1-1.12-.826c-.326-.383-.583-.896-.77-1.54-.177-.653-.266-1.465-.266-2.436v-.28c0-.905.089-1.661.266-2.268.187-.616.444-1.106.77-1.47a2.85 2.85 0 0 1 1.12-.784 3.77 3.77 0 0 1 1.344-.238c.476 0 .924.08 1.344.238.42.159.794.42 1.12.784.327.364.579.854.756 1.47.187.607.28 1.363.28 2.268v.28c0 .97-.093 1.783-.28 2.436-.177.644-.429 1.157-.756 1.54a2.87 2.87 0 0 1-1.12.826 3.77 3.77 0 0 1-1.344.238Zm0-1.148c.299 0 .579-.051.84-.154.262-.112.49-.308.686-.588.206-.29.364-.686.476-1.19.122-.513.182-1.167.182-1.96v-.28c0-.97-.102-1.717-.308-2.24-.196-.523-.462-.882-.798-1.078a2.056 2.056 0 0 0-1.078-.294 2.13 2.13 0 0 0-1.092.294c-.326.196-.592.555-.798 1.078-.196.523-.294 1.27-.294 2.24v.28c0 .793.056 1.447.168 1.96.122.504.28.9.476 1.19.206.28.439.476.7.588.271.103.551.154.84.154ZM99.1 72.14a.907.907 0 0 1-.49-.14 1 1 0 0 1-.364-.35.983.983 0 0 1-.126-.49.95.95 0 0 1 .28-.7.98.98 0 0 1 .7-.28c.27 0 .5.093.686.28.196.187.294.42.294.7a.91.91 0 0 1-.14.49.902.902 0 0 1-.35.35.863.863 0 0 1-.49.14Zm8.789-.14h-1.316v-2.366h-4.704v-1.008l4.564-6.426h1.456v6.286h1.26v1.148h-1.26V72Zm-1.316-8.134-3.304 4.62h3.304v-4.62Zm7.646 8.274a3.77 3.77 0 0 1-1.344-.238 2.872 2.872 0 0 1-1.12-.826c-.327-.383-.583-.896-.77-1.54-.177-.653-.266-1.465-.266-2.436v-.28c0-.905.089-1.661.266-2.268.187-.616.443-1.106.77-1.47.327-.364.7-.625 1.12-.784a3.77 3.77 0 0 1 1.344-.238c.476 0 .924.08 1.344.238.42.159.793.42 1.12.784.327.364.579.854.756 1.47.187.607.28 1.363.28 2.268v.28c0 .97-.093 1.783-.28 2.436-.177.644-.429 1.157-.756 1.54s-.7.658-1.12.826a3.77 3.77 0 0 1-1.344.238Zm0-1.148c.299 0 .579-.051.84-.154.261-.112.49-.308.686-.588.205-.29.364-.686.476-1.19.121-.513.182-1.167.182-1.96v-.28c0-.97-.103-1.717-.308-2.24-.196-.523-.462-.882-.798-1.078a2.057 2.057 0 0 0-1.078-.294 2.13 2.13 0 0 0-1.092.294c-.327.196-.593.555-.798 1.078-.196.523-.294 1.27-.294 2.24v.28c0 .793.056 1.447.168 1.96.121.504.28.9.476 1.19.205.28.439.476.7.588.271.103.551.154.84.154Zm7.002-4.032c-.654 0-1.19-.21-1.61-.63-.42-.43-.63-.99-.63-1.68v-.14c0-.457.093-.859.28-1.204.196-.345.462-.616.798-.812a2.31 2.31 0 0 1 1.162-.294c.438 0 .826.098 1.162.294.336.196.597.467.784.812.196.345.294.747.294 1.204v.14c0 .69-.21 1.25-.63 1.68-.42.42-.957.63-1.61.63Zm0-1.064c.317 0 .569-.103.756-.308.186-.205.28-.518.28-.938v-.14c0-.42-.094-.733-.28-.938-.187-.205-.439-.308-.756-.308-.318 0-.57.103-.756.308-.187.205-.28.518-.28.938v.14c0 .42.093.733.28.938.186.205.438.308.756.308Zm-.84 6.244 6.72-9.8h1.4l-6.72 9.8h-1.4Zm7.28.14c-.654 0-1.19-.21-1.61-.63-.42-.43-.63-.99-.63-1.68v-.14c0-.457.093-.859.28-1.204.196-.345.462-.616.798-.812a2.31 2.31 0 0 1 1.162-.294c.438 0 .826.098 1.162.294.336.196.597.467.784.812.196.345.294.747.294 1.204v.14c0 .69-.21 1.25-.63 1.68-.42.42-.957.63-1.61.63Zm0-1.064c.317 0 .569-.103.756-.308.186-.205.28-.518.28-.938v-.14c0-.42-.094-.733-.28-.938-.187-.205-.439-.308-.756-.308-.318 0-.57.103-.756.308-.187.205-.28.518-.28.938v.14c0 .42.093.733.28.938.186.205.438.308.756.308Z"/><rect width="220.667" height="76" x="252.667" y="16" fill="#0A0A0A" rx="4"/><rect width="4" height="16" x="268.667" y="33" fill="#F044FF" rx="2"/><path fill="#fff" d="M278.365 46v-9.8h2.87c.98 0 1.82.177 2.52.532a3.66 3.66 0 0 1 1.61 1.582c.374.69.56 1.55.56 2.576v.28c0 1.045-.191 1.927-.574 2.646a3.814 3.814 0 0 1-1.666 1.638c-.718.364-1.582.546-2.59.546h-2.73Zm1.316-1.148h1.274c.738 0 1.372-.126 1.904-.378a2.665 2.665 0 0 0 1.232-1.19c.29-.541.434-1.246.434-2.114v-.28c0-.84-.14-1.517-.42-2.03a2.572 2.572 0 0 0-1.19-1.148c-.513-.243-1.12-.364-1.82-.364h-1.414v7.504Zm11.287 1.288a3.948 3.948 0 0 1-1.764-.406 3.28 3.28 0 0 1-1.316-1.26c-.327-.56-.49-1.265-.49-2.114v-.28c0-.803.163-1.475.49-2.016a3.235 3.235 0 0 1 1.316-1.218 3.948 3.948 0 0 1 1.764-.406c.635 0 1.223.135 1.764.406.541.27.975.677 1.302 1.218.336.541.504 1.213.504 2.016v.28c0 .85-.168 1.554-.504 2.114-.327.56-.761.98-1.302 1.26a3.887 3.887 0 0 1-1.764.406Zm0-1.12c.383 0 .747-.084 1.092-.252.355-.177.644-.462.868-.854.233-.392.35-.91.35-1.554v-.28c0-.597-.117-1.078-.35-1.442a2.01 2.01 0 0 0-.868-.812 2.357 2.357 0 0 0-1.092-.266c-.373 0-.737.089-1.092.266a2.092 2.092 0 0 0-.882.812c-.224.364-.336.845-.336 1.442v.28c0 .644.112 1.162.336 1.554.233.392.527.677.882.854.355.168.719.252 1.092.252Zm6.508.98-2.03-7.42h1.344l1.428 5.74 1.932-5.74h1.092l2.002 5.74 1.414-5.74h1.288l-2.03 7.42h-1.232l-2.016-5.74-1.96 5.74h-1.232Zm15.674.14c-.644 0-1.181-.107-1.61-.322a2.261 2.261 0 0 1-.966-.924c-.215-.401-.336-.873-.364-1.414h1.288c.037.467.182.83.434 1.092.252.261.658.392 1.218.392.392 0 .719-.07.98-.21.261-.15.457-.401.588-.756.131-.364.196-.863.196-1.498v-6.3h1.316v6.3c0 .868-.112 1.573-.336 2.114-.224.532-.565.92-1.022 1.162-.448.243-1.022.364-1.722.364Zm8.675 0a3.948 3.948 0 0 1-1.764-.406 3.28 3.28 0 0 1-1.316-1.26c-.326-.56-.49-1.265-.49-2.114v-.28c0-.803.164-1.475.49-2.016a3.235 3.235 0 0 1 1.316-1.218 3.948 3.948 0 0 1 1.764-.406c.635 0 1.223.135 1.764.406.542.27.976.677 1.302 1.218.336.541.504 1.213.504 2.016v.28c0 .85-.168 1.554-.504 2.114-.326.56-.76.98-1.302 1.26a3.887 3.887 0 0 1-1.764.406Zm0-1.12c.383 0 .747-.084 1.092-.252.355-.177.644-.462.868-.854.234-.392.35-.91.35-1.554v-.28c0-.597-.116-1.078-.35-1.442a2.01 2.01 0 0 0-.868-.812 2.357 2.357 0 0 0-1.092-.266c-.373 0-.737.089-1.092.266a2.104 2.104 0 0 0-.882.812c-.224.364-.336.845-.336 1.442v.28c0 .644.112 1.162.336 1.554.234.392.528.677.882.854.355.168.719.252 1.092.252Zm5.315.98v-7.42h1.148v1.4c.168-.41.462-.77.882-1.078.429-.308.98-.462 1.652-.462.933 0 1.624.252 2.072.756.457.495.686 1.223.686 2.184V46h-1.232v-4.34c0-.69-.145-1.213-.434-1.568-.289-.355-.775-.532-1.456-.532-.485 0-.882.103-1.19.308a1.906 1.906 0 0 0-.686.784 2.47 2.47 0 0 0-.21 1.008V46h-1.232Zm11.693.14a3.948 3.948 0 0 1-1.764-.406 3.183 3.183 0 0 1-1.316-1.246c-.326-.56-.49-1.27-.49-2.128v-.28c0-.821.159-1.498.476-2.03a3.012 3.012 0 0 1 1.26-1.204 3.632 3.632 0 0 1 1.694-.406c1.092 0 1.937.299 2.534.896.598.597.896 1.442.896 2.534v.784h-5.628c0 .579.117 1.04.35 1.386.243.345.542.597.896.756.364.15.728.224 1.092.224.56 0 .99-.093 1.288-.28.308-.187.528-.443.658-.77h1.204c-.149.71-.518 1.25-1.106 1.624-.578.364-1.26.546-2.044.546Zm-.07-6.58c-.382 0-.746.075-1.092.224-.345.14-.63.364-.854.672-.214.308-.322.705-.322 1.19h4.466c-.009-.513-.116-.92-.322-1.218a1.628 1.628 0 0 0-.784-.658 2.74 2.74 0 0 0-1.092-.21Zm7.701 6.58c-.494 0-.924-.056-1.288-.168a2.89 2.89 0 0 1-.91-.476 2.443 2.443 0 0 1-.588-.686 3.09 3.09 0 0 1-.294-.84h1.232c.066.299.238.56.518.784.29.215.733.322 1.33.322.691 0 1.172-.107 1.442-.322.271-.224.406-.485.406-.784a.814.814 0 0 0-.182-.532c-.112-.159-.317-.294-.616-.406-.289-.112-.704-.205-1.246-.28a6.756 6.756 0 0 1-1.106-.238 2.986 2.986 0 0 1-.84-.434 1.908 1.908 0 0 1-.546-.644 2.051 2.051 0 0 1-.182-.896c0-.373.108-.719.322-1.036.215-.317.537-.574.966-.77.43-.196.957-.294 1.582-.294.588 0 1.074.103 1.456.308.392.196.696.457.91.784.215.327.36.686.434 1.078h-1.232a1.427 1.427 0 0 0-.476-.798c-.242-.205-.606-.308-1.092-.308-.606 0-1.031.103-1.274.308-.242.196-.364.439-.364.728 0 .336.131.588.392.756.271.168.761.299 1.47.392.458.056.864.14 1.218.252.355.103.654.247.896.434.243.177.425.397.546.658.131.261.196.574.196.938 0 .392-.112.751-.336 1.078-.224.327-.564.593-1.022.798-.448.196-1.022.294-1.722.294Zm8.614-.14v-9.8h6.3v1.148h-4.984v3.038h4.564v1.148h-4.564v3.318h4.984V46h-6.3Zm10.964 0v-8.652h-3.402V36.2h8.12v1.148h-3.402V46h-1.316Zm6.4 0v-9.8h6.3v1.148h-4.984v3.178h4.564v1.148h-4.564V46h-1.316Zm23.658.14c-.709 0-1.316-.121-1.82-.364a2.888 2.888 0 0 1-1.148-1.008 2.696 2.696 0 0 1-.392-1.428h1.316c0 .476.163.868.49 1.176.327.299.845.448 1.554.448.709 0 1.227-.154 1.554-.462.327-.317.49-.728.49-1.232 0-.523-.168-.943-.504-1.26-.327-.327-.84-.49-1.54-.49h-1.05V40.4h1.05c.672 0 1.157-.14 1.456-.42.299-.29.448-.686.448-1.19 0-.485-.145-.863-.434-1.134-.289-.28-.779-.42-1.47-.42-.663 0-1.148.145-1.456.434-.299.28-.448.63-.448 1.05h-1.316c0-.495.126-.943.378-1.344.252-.401.616-.719 1.092-.952.485-.243 1.069-.364 1.75-.364.691 0 1.274.121 1.75.364.485.233.849.546 1.092.938.252.392.378.821.378 1.288 0 .56-.149 1.036-.448 1.428-.289.383-.7.653-1.232.812.56.177 1.003.467 1.33.868.327.401.49.952.49 1.652 0 .495-.131.952-.392 1.372-.261.41-.644.742-1.148.994-.495.243-1.101.364-1.82.364Zm8.539 0a3.77 3.77 0 0 1-1.344-.238 2.872 2.872 0 0 1-1.12-.826c-.326-.383-.583-.896-.77-1.54-.177-.653-.266-1.465-.266-2.436v-.28c0-.905.089-1.661.266-2.268.187-.616.444-1.106.77-1.47.327-.364.7-.625 1.12-.784a3.77 3.77 0 0 1 1.344-.238c.476 0 .924.08 1.344.238.42.159.794.42 1.12.784.327.364.579.854.756 1.47.187.607.28 1.363.28 2.268v.28c0 .97-.093 1.783-.28 2.436-.177.644-.429 1.157-.756 1.54-.326.383-.7.658-1.12.826a3.77 3.77 0 0 1-1.344.238Zm0-1.148c.299 0 .579-.051.84-.154.262-.112.49-.308.686-.588.206-.29.364-.686.476-1.19.122-.513.182-1.167.182-1.96v-.28c0-.97-.102-1.717-.308-2.24-.196-.523-.462-.882-.798-1.078a2.054 2.054 0 0 0-1.078-.294 2.13 2.13 0 0 0-1.092.294c-.326.196-.592.555-.798 1.078-.196.523-.294 1.27-.294 2.24v.28c0 .793.056 1.447.168 1.96.122.504.28.9.476 1.19.206.28.439.476.7.588.271.103.551.154.84.154Zm6.442 1.148a.907.907 0 0 1-.49-.14 1.006 1.006 0 0 1-.364-.35.983.983 0 0 1-.126-.49c0-.28.093-.513.28-.7a.98.98 0 0 1 .7-.28c.271 0 .499.093.686.28.196.187.294.42.294.7a.91.91 0 0 1-.14.49.904.904 0 0 1-.35.35.862.862 0 0 1-.49.14Zm6.437 0a3.77 3.77 0 0 1-1.344-.238 2.872 2.872 0 0 1-1.12-.826c-.326-.383-.583-.896-.77-1.54-.177-.653-.266-1.465-.266-2.436v-.28c0-.905.089-1.661.266-2.268.187-.616.444-1.106.77-1.47.327-.364.7-.625 1.12-.784a3.77 3.77 0 0 1 1.344-.238c.476 0 .924.08 1.344.238.42.159.794.42 1.12.784.327.364.579.854.756 1.47.187.607.28 1.363.28 2.268v.28c0 .97-.093 1.783-.28 2.436-.177.644-.429 1.157-.756 1.54-.326.383-.7.658-1.12.826a3.77 3.77 0 0 1-1.344.238Zm0-1.148c.299 0 .579-.051.84-.154.262-.112.49-.308.686-.588.206-.29.364-.686.476-1.19.122-.513.182-1.167.182-1.96v-.28c0-.97-.102-1.717-.308-2.24-.196-.523-.462-.882-.798-1.078a2.054 2.054 0 0 0-1.078-.294 2.13 2.13 0 0 0-1.092.294c-.326.196-.592.555-.798 1.078-.196.523-.294 1.27-.294 2.24v.28c0 .793.056 1.447.168 1.96.122.504.28.9.476 1.19.206.28.439.476.7.588.271.103.551.154.84.154Zm8.682 1.148a3.77 3.77 0 0 1-1.344-.238 2.872 2.872 0 0 1-1.12-.826c-.327-.383-.583-.896-.77-1.54-.177-.653-.266-1.465-.266-2.436v-.28c0-.905.089-1.661.266-2.268.187-.616.443-1.106.77-1.47.327-.364.7-.625 1.12-.784a3.77 3.77 0 0 1 1.344-.238c.476 0 .924.08 1.344.238.42.159.793.42 1.12.784.327.364.579.854.756 1.47.187.607.28 1.363.28 2.268v.28c0 .97-.093 1.783-.28 2.436-.177.644-.429 1.157-.756 1.54s-.7.658-1.12.826a3.77 3.77 0 0 1-1.344.238Zm0-1.148c.299 0 .579-.051.84-.154.261-.112.49-.308.686-.588.205-.29.364-.686.476-1.19.121-.513.182-1.167.182-1.96v-.28c0-.97-.103-1.717-.308-2.24-.196-.523-.462-.882-.798-1.078a2.057 2.057 0 0 0-1.078-.294 2.13 2.13 0 0 0-1.092.294c-.327.196-.593.555-.798 1.078-.196.523-.294 1.27-.294 2.24v.28c0 .793.056 1.447.168 1.96.121.504.28.9.476 1.19.205.28.439.476.7.588.271.103.551.154.84.154Zm8.682 1.148a3.77 3.77 0 0 1-1.344-.238 2.865 2.865 0 0 1-1.12-.826c-.327-.383-.584-.896-.77-1.54-.178-.653-.266-1.465-.266-2.436v-.28c0-.905.088-1.661.266-2.268.186-.616.443-1.106.77-1.47.326-.364.7-.625 1.12-.784a3.77 3.77 0 0 1 1.344-.238c.476 0 .924.08 1.344.238.42.159.793.42 1.12.784.326.364.578.854.756 1.47.186.607.28 1.363.28 2.268v.28c0 .97-.094 1.783-.28 2.436-.178.644-.43 1.157-.756 1.54a2.87 2.87 0 0 1-1.12.826 3.77 3.77 0 0 1-1.344.238Zm0-1.148c.298 0 .578-.051.84-.154.261-.112.49-.308.686-.588.205-.29.364-.686.476-1.19.121-.513.182-1.167.182-1.96v-.28c0-.97-.103-1.717-.308-2.24-.196-.523-.462-.882-.798-1.078a2.057 2.057 0 0 0-1.078-.294 2.13 2.13 0 0 0-1.092.294c-.327.196-.593.555-.798 1.078-.196.523-.294 1.27-.294 2.24v.28c0 .793.056 1.447.168 1.96.121.504.28.9.476 1.19.205.28.438.476.7.588.27.103.55.154.84.154Z"/><path fill="#0FEDBE" d="M269.227 68.654v-1.148h4.2v1.148h-4.2Zm8.748 3.486c-.709 0-1.316-.121-1.82-.364a2.888 2.888 0 0 1-1.148-1.008 2.696 2.696 0 0 1-.392-1.428h1.316c0 .476.163.868.49 1.176.327.299.845.448 1.554.448.709 0 1.227-.154 1.554-.462.327-.317.49-.728.49-1.232 0-.523-.168-.943-.504-1.26-.327-.327-.84-.49-1.54-.49h-1.05V66.4h1.05c.672 0 1.157-.14 1.456-.42.299-.29.448-.686.448-1.19 0-.485-.145-.863-.434-1.134-.289-.28-.779-.42-1.47-.42-.663 0-1.148.145-1.456.434-.299.28-.448.63-.448 1.05h-1.316c0-.495.126-.943.378-1.344.252-.401.616-.719 1.092-.952.485-.243 1.069-.364 1.75-.364.691 0 1.274.121 1.75.364.485.233.849.546 1.092.938.252.392.378.821.378 1.288 0 .56-.149 1.036-.448 1.428-.289.383-.7.653-1.232.812.56.177 1.003.467 1.33.868.327.401.49.952.49 1.652 0 .495-.131.952-.392 1.372-.261.41-.644.742-1.148.994-.495.243-1.101.364-1.82.364Zm6.299 0a.91.91 0 0 1-.49-.14c-.149-.084-.27-.2-.364-.35a.983.983 0 0 1-.126-.49c0-.28.094-.513.28-.7a.981.981 0 0 1 .7-.28c.271 0 .5.093.686.28.196.187.294.42.294.7 0 .177-.046.34-.14.49a.897.897 0 0 1-.35.35.862.862 0 0 1-.49.14Zm6.438 0a3.77 3.77 0 0 1-1.344-.238 2.865 2.865 0 0 1-1.12-.826c-.327-.383-.584-.896-.77-1.54-.178-.653-.266-1.465-.266-2.436v-.28c0-.905.088-1.661.266-2.268.186-.616.443-1.106.77-1.47.326-.364.7-.625 1.12-.784a3.77 3.77 0 0 1 1.344-.238c.476 0 .924.08 1.344.238.42.159.793.42 1.12.784.326.364.578.854.756 1.47.186.607.28 1.363.28 2.268v.28c0 .97-.094 1.783-.28 2.436-.178.644-.43 1.157-.756 1.54a2.87 2.87 0 0 1-1.12.826 3.77 3.77 0 0 1-1.344.238Zm0-1.148c.298 0 .578-.051.84-.154.261-.112.49-.308.686-.588.205-.29.364-.686.476-1.19.121-.513.182-1.167.182-1.96v-.28c0-.97-.103-1.717-.308-2.24-.196-.523-.462-.882-.798-1.078a2.057 2.057 0 0 0-1.078-.294 2.13 2.13 0 0 0-1.092.294c-.327.196-.593.555-.798 1.078-.196.523-.294 1.27-.294 2.24v.28c0 .793.056 1.447.168 1.96.121.504.28.9.476 1.19.205.28.438.476.7.588.27.103.55.154.84.154Zm8.401 1.148c-.532 0-.994-.07-1.386-.21a2.963 2.963 0 0 1-.994-.574 2.632 2.632 0 0 1-.602-.812 2.514 2.514 0 0 1-.238-.924h1.316c.047.355.234.667.56.938.336.27.784.406 1.344.406.635 0 1.134-.196 1.498-.588.364-.401.546-.957.546-1.666 0-.541-.098-.975-.294-1.302a1.745 1.745 0 0 0-.77-.728 2.216 2.216 0 0 0-.98-.224c-.504 0-.9.093-1.19.28-.28.187-.494.401-.644.644h-1.176V62.2h5.81v1.148h-4.494v2.73a2.31 2.31 0 0 1 .84-.602c.318-.13.672-.196 1.064-.196.654 0 1.214.13 1.68.392.467.261.826.649 1.078 1.162.262.504.392 1.13.392 1.876 0 .7-.144 1.307-.434 1.82-.28.513-.672.91-1.176 1.19-.504.28-1.087.42-1.75.42Zm15.788-2.03v-2.576h-2.534v-1.148h2.534V63.81h1.232v2.576h2.534v1.148h-2.534v2.576h-1.232Zm8.803 2.03a3.77 3.77 0 0 1-1.344-.238 2.865 2.865 0 0 1-1.12-.826c-.327-.383-.584-.896-.77-1.54-.178-.653-.266-1.465-.266-2.436v-.28c0-.905.088-1.661.266-2.268.186-.616.443-1.106.77-1.47.326-.364.7-.625 1.12-.784a3.77 3.77 0 0 1 1.344-.238c.476 0 .924.08 1.344.238.42.159.793.42 1.12.784.326.364.578.854.756 1.47.186.607.28 1.363.28 2.268v.28c0 .97-.094 1.783-.28 2.436-.178.644-.43 1.157-.756 1.54a2.87 2.87 0 0 1-1.12.826 3.77 3.77 0 0 1-1.344.238Zm0-1.148c.298 0 .578-.051.84-.154.261-.112.49-.308.686-.588.205-.29.364-.686.476-1.19.121-.513.182-1.167.182-1.96v-.28c0-.97-.103-1.717-.308-2.24-.196-.523-.462-.882-.798-1.078a2.057 2.057 0 0 0-1.078-.294 2.13 2.13 0 0 0-1.092.294c-.327.196-.593.555-.798 1.078-.196.523-.294 1.27-.294 2.24v.28c0 .793.056 1.447.168 1.96.121.504.28.9.476 1.19.205.28.438.476.7.588.27.103.55.154.84.154Zm6.441 1.148a.91.91 0 0 1-.49-.14c-.149-.084-.27-.2-.364-.35a.983.983 0 0 1-.126-.49c0-.28.094-.513.28-.7a.981.981 0 0 1 .7-.28c.271 0 .5.093.686.28.196.187.294.42.294.7 0 .177-.046.34-.14.49a.897.897 0 0 1-.35.35.862.862 0 0 1-.49.14Zm6.158 0c-.532 0-.994-.07-1.386-.21a2.953 2.953 0 0 1-.994-.574 2.616 2.616 0 0 1-.602-.812 2.494 2.494 0 0 1-.238-.924h1.316c.046.355.233.667.56.938.336.27.784.406 1.344.406.634 0 1.134-.196 1.498-.588.364-.401.546-.957.546-1.666 0-.541-.098-.975-.294-1.302a1.75 1.75 0 0 0-.77-.728 2.22 2.22 0 0 0-.98-.224c-.504 0-.901.093-1.19.28-.28.187-.495.401-.644.644h-1.176V62.2h5.81v1.148h-4.494v2.73c.242-.27.522-.471.84-.602.317-.13.672-.196 1.064-.196.653 0 1.213.13 1.68.392.466.261.826.649 1.078 1.162.261.504.392 1.13.392 1.876 0 .7-.145 1.307-.434 1.82-.28.513-.672.91-1.176 1.19-.504.28-1.088.42-1.75.42Zm8.471 0c-1.083 0-1.951-.36-2.604-1.078-.644-.728-.966-1.862-.966-3.402v-.28c0-1.288.168-2.32.504-3.094.336-.784.784-1.349 1.344-1.694a3.407 3.407 0 0 1 1.862-.532c.504 0 .956.08 1.358.238.401.159.737.401 1.008.728.27.317.462.719.574 1.204h-1.316a1.501 1.501 0 0 0-.602-.742c-.271-.168-.612-.252-1.022-.252a2.4 2.4 0 0 0-1.26.336c-.364.224-.658.602-.882 1.134-.215.523-.336 1.25-.364 2.184.27-.457.634-.78 1.092-.966a3.394 3.394 0 0 1 1.344-.294c.653 0 1.218.126 1.694.378.485.243.858.597 1.12 1.064.27.467.406 1.04.406 1.722v.14c0 .616-.15 1.167-.448 1.652a3.272 3.272 0 0 1-1.19 1.148 3.387 3.387 0 0 1-1.652.406Zm-.112-1.176c.681 0 1.199-.173 1.554-.518.354-.345.532-.845.532-1.498v-.14c0-.644-.178-1.139-.532-1.484-.355-.345-.873-.518-1.554-.518-.682 0-1.2.173-1.554.518-.355.345-.532.84-.532 1.484v.14c0 .644.177 1.143.532 1.498.354.345.872.518 1.554.518Zm6.838-4.004c-.653 0-1.19-.21-1.61-.63-.42-.43-.63-.99-.63-1.68v-.14a2.5 2.5 0 0 1 .28-1.204c.196-.345.462-.616.798-.812a2.315 2.315 0 0 1 1.162-.294c.439 0 .826.098 1.162.294.336.196.598.467.784.812.196.345.294.747.294 1.204v.14c0 .69-.21 1.25-.63 1.68-.42.42-.956.63-1.61.63Zm0-1.064c.318 0 .57-.103.756-.308.187-.205.28-.518.28-.938v-.14c0-.42-.093-.733-.28-.938-.186-.205-.438-.308-.756-.308-.317 0-.569.103-.756.308-.186.205-.28.518-.28.938v.14c0 .42.094.733.28.938.187.205.439.308.756.308Zm-.84 6.244 6.72-9.8h1.4l-6.72 9.8h-1.4Zm7.28.14c-.653 0-1.19-.21-1.61-.63-.42-.43-.63-.99-.63-1.68v-.14a2.5 2.5 0 0 1 .28-1.204c.196-.345.462-.616.798-.812a2.315 2.315 0 0 1 1.162-.294c.439 0 .826.098 1.162.294.336.196.598.467.784.812.196.345.294.747.294 1.204v.14c0 .69-.21 1.25-.63 1.68-.42.42-.956.63-1.61.63Zm0-1.064c.318 0 .57-.103.756-.308.187-.205.28-.518.28-.938v-.14c0-.42-.093-.733-.28-.938-.186-.205-.438-.308-.756-.308-.317 0-.569.103-.756.308-.186.205-.28.518-.28.938v.14c0 .42.094.733.28.938.187.205.439.308.756.308Z"/><rect width="220.667" height="76" x="481.333" y="16" fill="#0A0A0A" rx="4"/><rect width="4" height="16" x="497.333" y="33" fill="#FFAA2B" rx="2"/><path fill="#fff" d="M506.817 46v-9.8h1.288l5.264 7.63V36.2h1.288V46h-1.288l-5.264-7.63V46h-1.288Zm9.517 0 3.752-9.8h1.316l3.752 9.8h-1.428l-.938-2.436h-4.144L517.706 46h-1.372Zm2.744-3.584h3.276l-1.638-4.536-1.638 4.536Zm10.698 3.724c-.784 0-1.437-.121-1.96-.364-.513-.243-.91-.57-1.19-.98a3.69 3.69 0 0 1-.56-1.386h1.316c.103.43.336.798.7 1.106.364.299.929.448 1.694.448.784 0 1.377-.15 1.778-.448.411-.299.616-.667.616-1.106 0-.364-.084-.653-.252-.868-.168-.224-.448-.41-.84-.56-.382-.159-.905-.313-1.568-.462-.728-.159-1.325-.345-1.792-.56-.466-.215-.812-.504-1.036-.868-.224-.364-.336-.845-.336-1.442 0-.485.136-.92.406-1.302.28-.392.677-.705 1.19-.938.514-.233 1.125-.35 1.834-.35.7 0 1.284.117 1.75.35.467.233.831.546 1.092.938.262.383.434.817.518 1.302h-1.316a1.87 1.87 0 0 0-.602-.994c-.298-.28-.779-.42-1.442-.42-.672 0-1.194.14-1.568.42-.364.27-.546.602-.546.994 0 .513.192.891.574 1.134.383.233.994.443 1.834.63.607.13 1.125.28 1.554.448.439.168.794.369 1.064.602.28.224.481.495.602.812.131.317.196.695.196 1.134 0 .504-.149.966-.448 1.386-.289.41-.709.737-1.26.98-.55.243-1.218.364-2.002.364Zm5.875-.14v-9.8h2.87c.98 0 1.82.177 2.52.532a3.66 3.66 0 0 1 1.61 1.582c.374.69.56 1.55.56 2.576v.28c0 1.045-.191 1.927-.574 2.646a3.814 3.814 0 0 1-1.666 1.638c-.718.364-1.582.546-2.59.546h-2.73Zm1.316-1.148h1.274c.738 0 1.372-.126 1.904-.378a2.665 2.665 0 0 0 1.232-1.19c.29-.541.434-1.246.434-2.114v-.28c0-.84-.14-1.517-.42-2.03a2.572 2.572 0 0 0-1.19-1.148c-.513-.243-1.12-.364-1.82-.364h-1.414v7.504ZM544.061 46l3.752-9.8h1.316l3.752 9.8h-1.428l-.938-2.436h-4.144L545.433 46h-1.372Zm2.744-3.584h3.276l-1.638-4.536-1.638 4.536Zm11.261 3.724c-.56 0-1.101-.093-1.624-.28a4.028 4.028 0 0 1-1.386-.896c-.41-.401-.737-.915-.98-1.54-.233-.625-.35-1.377-.35-2.254v-.28c0-.84.117-1.563.35-2.17.243-.607.57-1.106.98-1.498a3.859 3.859 0 0 1 1.386-.882 4.793 4.793 0 0 1 1.624-.28c.56 0 1.097.093 1.61.28.523.187.99.48 1.4.882.411.392.733.891.966 1.498.243.607.364 1.33.364 2.17v.28c0 .793-.098 1.48-.294 2.058a4.704 4.704 0 0 1-.784 1.456l.938.938-.798.798-.98-.966a3.97 3.97 0 0 1-1.148.518c-.41.112-.835.168-1.274.168Zm0-1.176c.271 0 .532-.033.784-.098.262-.075.504-.182.728-.322l-1.512-1.526.798-.798 1.512 1.526c.196-.299.35-.658.462-1.078.112-.43.168-.929.168-1.498v-.28c0-.859-.14-1.554-.42-2.086-.28-.541-.644-.938-1.092-1.19a2.814 2.814 0 0 0-1.428-.378c-.504 0-.98.126-1.428.378-.448.252-.812.649-1.092 1.19-.28.532-.42 1.227-.42 2.086v.28c0 .905.14 1.638.42 2.198.28.56.644.966 1.092 1.218.448.252.924.378 1.428.378ZM582.386 46h-1.316v-2.366h-4.704v-1.008l4.564-6.426h1.456v6.286h1.26v1.148h-1.26V46Zm-1.316-8.134-3.304 4.62h3.304v-4.62Zm7.365 8.274c-.532 0-.994-.07-1.386-.21a2.963 2.963 0 0 1-.994-.574 2.632 2.632 0 0 1-.602-.812 2.514 2.514 0 0 1-.238-.924h1.316c.047.355.234.667.56.938.336.27.784.406 1.344.406.635 0 1.134-.196 1.498-.588.364-.401.546-.957.546-1.666 0-.541-.098-.975-.294-1.302a1.745 1.745 0 0 0-.77-.728 2.216 2.216 0 0 0-.98-.224c-.504 0-.9.093-1.19.28-.28.187-.494.401-.644.644h-1.176V36.2h5.81v1.148h-4.494v2.73a2.31 2.31 0 0 1 .84-.602c.318-.13.672-.196 1.064-.196.654 0 1.214.13 1.68.392.467.261.826.649 1.078 1.162.262.504.392 1.13.392 1.876 0 .7-.144 1.307-.434 1.82-.28.513-.672.91-1.176 1.19-.504.28-1.087.42-1.75.42Zm4.622-.14v-1.078l3.92-3.402c.401-.336.709-.63.924-.882.214-.261.359-.509.434-.742.084-.233.126-.485.126-.756 0-.55-.164-1.003-.49-1.358-.327-.364-.775-.546-1.344-.546-.682 0-1.204.187-1.568.56-.364.364-.546.882-.546 1.554h-1.316c0-.644.14-1.213.42-1.708a3.06 3.06 0 0 1 1.204-1.162c.522-.28 1.124-.42 1.806-.42.662 0 1.227.135 1.694.406.476.261.835.625 1.078 1.092.252.457.378.985.378 1.582 0 .448-.089.859-.266 1.232a4.04 4.04 0 0 1-.742 1.036 14.73 14.73 0 0 1-1.078 1.022l-2.926 2.422h5.152V46h-6.86Zm9.661.14a.905.905 0 0 1-.49-.14.998.998 0 0 1-.364-.35.983.983 0 0 1-.126-.49c0-.28.093-.513.28-.7a.98.98 0 0 1 .7-.28c.27 0 .499.093.686.28.196.187.294.42.294.7a.91.91 0 0 1-.14.49.904.904 0 0 1-.35.35.864.864 0 0 1-.49.14Zm6.087 0a3.99 3.99 0 0 1-1.414-.238 2.504 2.504 0 0 1-1.022-.714c-.271-.327-.462-.733-.574-1.218h1.316c.131.327.336.574.616.742.289.168.649.252 1.078.252.448 0 .849-.112 1.204-.336.364-.224.653-.602.868-1.134.224-.532.345-1.26.364-2.184a2.223 2.223 0 0 1-1.092.98c-.457.187-.905.28-1.344.28-.653 0-1.223-.121-1.708-.364a2.77 2.77 0 0 1-1.12-1.078c-.261-.476-.392-1.05-.392-1.722v-.14c0-.625.149-1.176.448-1.652a3.154 3.154 0 0 1 1.19-1.134 3.346 3.346 0 0 1 1.652-.42c.737 0 1.372.159 1.904.476.532.317.943.807 1.232 1.47.289.653.434 1.498.434 2.534v.28c0 1.288-.168 2.324-.504 3.108-.336.775-.779 1.34-1.33 1.694a3.336 3.336 0 0 1-1.806.518Zm.182-4.746c.681 0 1.199-.173 1.554-.518.355-.345.532-.84.532-1.484v-.14c0-.635-.182-1.13-.546-1.484-.355-.355-.868-.532-1.54-.532-.681 0-1.199.173-1.554.518-.355.336-.532.835-.532 1.498v.14c0 .644.177 1.139.532 1.484.355.345.873.518 1.554.518Zm8.645 4.746a3.77 3.77 0 0 1-1.344-.238 2.865 2.865 0 0 1-1.12-.826c-.327-.383-.584-.896-.77-1.54-.178-.653-.266-1.465-.266-2.436v-.28c0-.905.088-1.661.266-2.268.186-.616.443-1.106.77-1.47.326-.364.7-.625 1.12-.784a3.77 3.77 0 0 1 1.344-.238c.476 0 .924.08 1.344.238.42.159.793.42 1.12.784.326.364.578.854.756 1.47.186.607.28 1.363.28 2.268v.28c0 .97-.094 1.783-.28 2.436-.178.644-.43 1.157-.756 1.54a2.87 2.87 0 0 1-1.12.826 3.77 3.77 0 0 1-1.344.238Zm0-1.148c.298 0 .578-.051.84-.154.261-.112.49-.308.686-.588.205-.29.364-.686.476-1.19.121-.513.182-1.167.182-1.96v-.28c0-.97-.103-1.717-.308-2.24-.196-.523-.462-.882-.798-1.078a2.057 2.057 0 0 0-1.078-.294 2.13 2.13 0 0 0-1.092.294c-.327.196-.593.555-.798 1.078-.196.523-.294 1.27-.294 2.24v.28c0 .793.056 1.447.168 1.96.121.504.28.9.476 1.19.205.28.438.476.7.588.27.103.55.154.84.154Z"/><path fill="#F73C6B" d="M497.893 68.654v-1.148h4.2v1.148h-4.2Zm8.749 3.486c-.709 0-1.316-.121-1.82-.364a2.888 2.888 0 0 1-1.148-1.008 2.696 2.696 0 0 1-.392-1.428h1.316c0 .476.163.868.49 1.176.327.299.845.448 1.554.448.709 0 1.227-.154 1.554-.462.327-.317.49-.728.49-1.232 0-.523-.168-.943-.504-1.26-.327-.327-.84-.49-1.54-.49h-1.05V66.4h1.05c.672 0 1.157-.14 1.456-.42.299-.29.448-.686.448-1.19 0-.485-.145-.863-.434-1.134-.289-.28-.779-.42-1.47-.42-.663 0-1.148.145-1.456.434-.299.28-.448.63-.448 1.05h-1.316c0-.495.126-.943.378-1.344.252-.401.616-.719 1.092-.952.485-.243 1.069-.364 1.75-.364.691 0 1.274.121 1.75.364.485.233.849.546 1.092.938.252.392.378.821.378 1.288 0 .56-.149 1.036-.448 1.428-.289.383-.7.653-1.232.812.56.177 1.003.467 1.33.868.327.401.49.952.49 1.652 0 .495-.131.952-.392 1.372-.261.41-.644.742-1.148.994-.495.243-1.101.364-1.82.364Zm6.299 0a.91.91 0 0 1-.49-.14c-.149-.084-.27-.2-.364-.35a.983.983 0 0 1-.126-.49c0-.28.094-.513.28-.7a.981.981 0 0 1 .7-.28c.271 0 .5.093.686.28.196.187.294.42.294.7 0 .177-.046.34-.14.49a.897.897 0 0 1-.35.35.862.862 0 0 1-.49.14Zm6.438 0a3.77 3.77 0 0 1-1.344-.238 2.865 2.865 0 0 1-1.12-.826c-.327-.383-.584-.896-.77-1.54-.178-.653-.266-1.465-.266-2.436v-.28c0-.905.088-1.661.266-2.268.186-.616.443-1.106.77-1.47.326-.364.7-.625 1.12-.784a3.77 3.77 0 0 1 1.344-.238c.476 0 .924.08 1.344.238.42.159.793.42 1.12.784.326.364.578.854.756 1.47.186.607.28 1.363.28 2.268v.28c0 .97-.094 1.783-.28 2.436-.178.644-.43 1.157-.756 1.54a2.87 2.87 0 0 1-1.12.826 3.77 3.77 0 0 1-1.344.238Zm0-1.148c.298 0 .578-.051.84-.154.261-.112.49-.308.686-.588.205-.29.364-.686.476-1.19.121-.513.182-1.167.182-1.96v-.28c0-.97-.103-1.717-.308-2.24-.196-.523-.462-.882-.798-1.078a2.057 2.057 0 0 0-1.078-.294 2.13 2.13 0 0 0-1.092.294c-.327.196-.593.555-.798 1.078-.196.523-.294 1.27-.294 2.24v.28c0 .793.056 1.447.168 1.96.121.504.28.9.476 1.19.205.28.438.476.7.588.27.103.55.154.84.154Zm8.401 1.148c-.532 0-.994-.07-1.386-.21a2.963 2.963 0 0 1-.994-.574 2.632 2.632 0 0 1-.602-.812 2.514 2.514 0 0 1-.238-.924h1.316c.047.355.234.667.56.938.336.27.784.406 1.344.406.635 0 1.134-.196 1.498-.588.364-.401.546-.957.546-1.666 0-.541-.098-.975-.294-1.302a1.745 1.745 0 0 0-.77-.728 2.216 2.216 0 0 0-.98-.224c-.504 0-.9.093-1.19.28-.28.187-.494.401-.644.644h-1.176V62.2h5.81v1.148h-4.494v2.73a2.31 2.31 0 0 1 .84-.602c.318-.13.672-.196 1.064-.196.654 0 1.214.13 1.68.392.467.261.826.649 1.078 1.162.262.504.392 1.13.392 1.876 0 .7-.144 1.307-.434 1.82-.28.513-.672.91-1.176 1.19-.504.28-1.087.42-1.75.42Zm13.113-3.486v-1.148h4.2v1.148h-4.2Zm9.099 3.486a3.77 3.77 0 0 1-1.344-.238 2.872 2.872 0 0 1-1.12-.826c-.327-.383-.583-.896-.77-1.54-.177-.653-.266-1.465-.266-2.436v-.28c0-.905.089-1.661.266-2.268.187-.616.443-1.106.77-1.47.327-.364.7-.625 1.12-.784a3.77 3.77 0 0 1 1.344-.238c.476 0 .924.08 1.344.238.42.159.793.42 1.12.784.327.364.579.854.756 1.47.187.607.28 1.363.28 2.268v.28c0 .97-.093 1.783-.28 2.436-.177.644-.429 1.157-.756 1.54s-.7.658-1.12.826a3.77 3.77 0 0 1-1.344.238Zm0-1.148c.299 0 .579-.051.84-.154.261-.112.49-.308.686-.588.205-.29.364-.686.476-1.19.121-.513.182-1.167.182-1.96v-.28c0-.97-.103-1.717-.308-2.24-.196-.523-.462-.882-.798-1.078a2.057 2.057 0 0 0-1.078-.294 2.13 2.13 0 0 0-1.092.294c-.327.196-.593.555-.798 1.078-.196.523-.294 1.27-.294 2.24v.28c0 .793.056 1.447.168 1.96.121.504.28.9.476 1.19.205.28.439.476.7.588.271.103.551.154.84.154Zm6.441 1.148a.91.91 0 0 1-.49-.14c-.149-.084-.27-.2-.364-.35a.983.983 0 0 1-.126-.49c0-.28.094-.513.28-.7a.981.981 0 0 1 .7-.28c.271 0 .5.093.686.28.196.187.294.42.294.7 0 .177-.046.34-.14.49a.897.897 0 0 1-.35.35.862.862 0 0 1-.49.14Zm6.088 0a3.99 3.99 0 0 1-1.414-.238 2.497 2.497 0 0 1-1.022-.714c-.271-.327-.462-.733-.574-1.218h1.316c.13.327.336.574.616.742.289.168.648.252 1.078.252.448 0 .849-.112 1.204-.336.364-.224.653-.602.868-1.134.224-.532.345-1.26.364-2.184a2.232 2.232 0 0 1-1.092.98 3.54 3.54 0 0 1-1.344.28c-.654 0-1.223-.121-1.708-.364a2.763 2.763 0 0 1-1.12-1.078c-.262-.476-.392-1.05-.392-1.722v-.14c0-.625.149-1.176.448-1.652a3.147 3.147 0 0 1 1.19-1.134 3.343 3.343 0 0 1 1.652-.42c.737 0 1.372.159 1.904.476.532.317.942.807 1.232 1.47.289.653.434 1.498.434 2.534v.28c0 1.288-.168 2.324-.504 3.108-.336.775-.78 1.34-1.33 1.694a3.336 3.336 0 0 1-1.806.518Zm.182-4.746c.681 0 1.199-.173 1.554-.518.354-.345.532-.84.532-1.484v-.14c0-.635-.182-1.13-.546-1.484-.355-.355-.868-.532-1.54-.532-.682 0-1.2.173-1.554.518-.355.336-.532.835-.532 1.498v.14c0 .644.177 1.139.532 1.484.354.345.872.518 1.554.518Zm8.714 4.746c-1.082 0-1.95-.36-2.604-1.078-.644-.728-.966-1.862-.966-3.402v-.28c0-1.288.168-2.32.504-3.094.336-.784.784-1.349 1.344-1.694a3.41 3.41 0 0 1 1.862-.532c.504 0 .957.08 1.358.238.402.159.738.401 1.008.728.271.317.462.719.574 1.204h-1.316a1.491 1.491 0 0 0-.602-.742c-.27-.168-.611-.252-1.022-.252-.466 0-.886.112-1.26.336-.364.224-.658.602-.882 1.134-.214.523-.336 1.25-.364 2.184.271-.457.635-.78 1.092-.966a3.402 3.402 0 0 1 1.344-.294c.654 0 1.218.126 1.694.378.486.243.859.597 1.12 1.064.271.467.406 1.04.406 1.722v.14c0 .616-.149 1.167-.448 1.652a3.256 3.256 0 0 1-1.19 1.148 3.381 3.381 0 0 1-1.652.406Zm-.112-1.176c.682 0 1.2-.173 1.554-.518.355-.345.532-.845.532-1.498v-.14c0-.644-.177-1.139-.532-1.484-.354-.345-.872-.518-1.554-.518-.681 0-1.199.173-1.554.518-.354.345-.532.84-.532 1.484v.14c0 .644.178 1.143.532 1.498.355.345.873.518 1.554.518Zm6.839-4.004c-.653 0-1.19-.21-1.61-.63-.42-.43-.63-.99-.63-1.68v-.14c0-.457.093-.859.28-1.204.196-.345.462-.616.798-.812a2.312 2.312 0 0 1 1.162-.294c.439 0 .826.098 1.162.294.336.196.597.467.784.812.196.345.294.747.294 1.204v.14c0 .69-.21 1.25-.63 1.68-.42.42-.957.63-1.61.63Zm0-1.064c.317 0 .569-.103.756-.308.187-.205.28-.518.28-.938v-.14c0-.42-.093-.733-.28-.938-.187-.205-.439-.308-.756-.308s-.569.103-.756.308c-.187.205-.28.518-.28.938v.14c0 .42.093.733.28.938.187.205.439.308.756.308Zm-.84 6.244 6.72-9.8h1.4l-6.72 9.8h-1.4Zm7.28.14c-.653 0-1.19-.21-1.61-.63-.42-.43-.63-.99-.63-1.68v-.14c0-.457.093-.859.28-1.204.196-.345.462-.616.798-.812a2.312 2.312 0 0 1 1.162-.294c.439 0 .826.098 1.162.294.336.196.597.467.784.812.196.345.294.747.294 1.204v.14c0 .69-.21 1.25-.63 1.68-.42.42-.957.63-1.61.63Zm0-1.064c.317 0 .569-.103.756-.308.187-.205.28-.518.28-.938v-.14c0-.42-.093-.733-.28-.938-.187-.205-.439-.308-.756-.308s-.569.103-.756.308c-.187.205-.28.518-.28.938v.14c0 .42.093.733.28.938.187.205.439.308.756.308Z"/><path fill="#999" d="M28.727 251.14c-.476 0-.924-.079-1.344-.238a2.867 2.867 0 0 1-1.12-.826c-.327-.383-.584-.896-.77-1.54-.178-.653-.266-1.465-.266-2.436v-.28c0-.905.088-1.661.266-2.268.186-.616.443-1.106.77-1.47.326-.364.7-.625 1.12-.784.42-.159.868-.238 1.344-.238.476 0 .924.079 1.344.238.42.159.793.42 1.12.784.326.364.578.854.756 1.47.186.607.28 1.363.28 2.268v.28c0 .971-.094 1.783-.28 2.436-.178.644-.43 1.157-.756 1.54a2.87 2.87 0 0 1-1.12.826c-.42.159-.868.238-1.344.238Zm0-1.148c.298 0 .578-.051.84-.154.261-.112.49-.308.686-.588.205-.289.364-.686.476-1.19.121-.513.182-1.167.182-1.96v-.28c0-.971-.103-1.717-.308-2.24-.196-.523-.462-.882-.798-1.078a2.056 2.056 0 0 0-1.078-.294 2.13 2.13 0 0 0-1.092.294c-.327.196-.593.555-.798 1.078-.196.523-.294 1.269-.294 2.24v.28c0 .793.056 1.447.168 1.96.121.504.28.901.476 1.19.205.28.438.476.7.588.27.103.55.154.84.154Zm8.331 1.148c-.522 0-.994-.079-1.414-.238a2.509 2.509 0 0 1-1.022-.714c-.27-.327-.462-.733-.574-1.218h1.316c.131.327.336.574.616.742.29.168.649.252 1.078.252.448 0 .85-.112 1.204-.336.364-.224.654-.602.868-1.134.224-.532.346-1.26.364-2.184a2.228 2.228 0 0 1-1.092.98c-.457.187-.905.28-1.344.28-.653 0-1.222-.121-1.708-.364a2.765 2.765 0 0 1-1.12-1.078c-.261-.476-.392-1.05-.392-1.722v-.14c0-.625.15-1.176.448-1.652a3.158 3.158 0 0 1 1.19-1.134 3.345 3.345 0 0 1 1.652-.42c.738 0 1.372.159 1.904.476.532.317.943.807 1.232 1.47.29.653.434 1.498.434 2.534v.28c0 1.288-.168 2.324-.504 3.108-.336.775-.779 1.339-1.33 1.694a3.337 3.337 0 0 1-1.806.518Zm.182-4.746c.682 0 1.2-.173 1.554-.518.355-.345.532-.84.532-1.484v-.14c0-.635-.182-1.129-.546-1.484-.354-.355-.868-.532-1.54-.532-.681 0-1.199.173-1.554.518-.354.336-.532.835-.532 1.498v.14c0 .644.178 1.139.532 1.484.355.345.873.518 1.554.518Zm6.405 4.746a.91.91 0 0 1-.49-.14 1.009 1.009 0 0 1-.364-.35.983.983 0 0 1-.126-.49.95.95 0 0 1 .28-.7.979.979 0 0 1 .7-.28c.27 0 .5.093.686.28.196.187.294.42.294.7a.906.906 0 0 1-.14.49.903.903 0 0 1-.35.35.865.865 0 0 1-.49.14Zm0-5.74a.983.983 0 0 1-.49-.126 1.131 1.131 0 0 1-.364-.364.983.983 0 0 1-.126-.49.95.95 0 0 1 .28-.7.979.979 0 0 1 .7-.28c.27 0 .5.093.686.28.196.187.294.42.294.7a.906.906 0 0 1-.14.49 1 1 0 0 1-.35.364.934.934 0 0 1-.49.126Zm6.087 5.74c-.71 0-1.316-.121-1.82-.364a2.888 2.888 0 0 1-1.148-1.008 2.692 2.692 0 0 1-.392-1.428h1.316c0 .476.163.868.49 1.176.327.299.845.448 1.554.448.71 0 1.227-.154 1.554-.462.327-.317.49-.728.49-1.232 0-.523-.168-.943-.504-1.26-.326-.327-.84-.49-1.54-.49h-1.05v-1.12h1.05c.672 0 1.157-.14 1.456-.42.299-.289.448-.686.448-1.19 0-.485-.145-.863-.434-1.134-.29-.28-.78-.42-1.47-.42-.663 0-1.148.145-1.456.434a1.38 1.38 0 0 0-.448 1.05h-1.316c0-.495.126-.943.378-1.344.252-.401.616-.719 1.092-.952.486-.243 1.069-.364 1.75-.364.69 0 1.274.121 1.75.364.486.233.85.546 1.092.938.252.392.378.821.378 1.288 0 .56-.15 1.036-.448 1.428-.29.383-.7.653-1.232.812.56.177 1.004.467 1.33.868.327.401.49.952.49 1.652 0 .495-.13.952-.392 1.372-.261.411-.644.742-1.148.994-.495.243-1.101.364-1.82.364Zm8.54 0c-.476 0-.924-.079-1.344-.238a2.867 2.867 0 0 1-1.12-.826c-.327-.383-.584-.896-.77-1.54-.178-.653-.266-1.465-.266-2.436v-.28c0-.905.088-1.661.266-2.268.186-.616.443-1.106.77-1.47.326-.364.7-.625 1.12-.784.42-.159.868-.238 1.344-.238.476 0 .924.079 1.344.238.42.159.793.42 1.12.784.326.364.578.854.756 1.47.186.607.28 1.363.28 2.268v.28c0 .971-.094 1.783-.28 2.436-.178.644-.43 1.157-.756 1.54a2.87 2.87 0 0 1-1.12.826c-.42.159-.868.238-1.344.238Zm0-1.148c.298 0 .578-.051.84-.154.261-.112.49-.308.686-.588.205-.289.364-.686.476-1.19.121-.513.182-1.167.182-1.96v-.28c0-.971-.103-1.717-.308-2.24-.196-.523-.462-.882-.798-1.078a2.056 2.056 0 0 0-1.078-.294 2.13 2.13 0 0 0-1.092.294c-.327.196-.593.555-.798 1.078-.196.523-.294 1.269-.294 2.24v.28c0 .793.056 1.447.168 1.96.121.504.28.901.476 1.19.205.28.438.476.7.588.27.103.55.154.84.154ZM619.854 251v-1.148h2.338v-7.21l-2.338 1.666v-1.428l2.366-1.68h1.316v8.652h1.918V251h-5.6Zm10.435.14c-1.083 0-1.951-.359-2.604-1.078-.644-.728-.966-1.862-.966-3.402v-.28c0-1.288.168-2.319.504-3.094.336-.784.784-1.349 1.344-1.694a3.407 3.407 0 0 1 1.862-.532c.504 0 .957.079 1.358.238.401.159.737.401 1.008.728.271.317.462.719.574 1.204h-1.316a1.495 1.495 0 0 0-.602-.742c-.271-.168-.611-.252-1.022-.252a2.4 2.4 0 0 0-1.26.336c-.364.224-.658.602-.882 1.134-.215.523-.336 1.251-.364 2.184a2.237 2.237 0 0 1 1.092-.966 3.394 3.394 0 0 1 1.344-.294c.653 0 1.218.126 1.694.378.485.243.859.597 1.12 1.064.271.467.406 1.041.406 1.722v.14c0 .616-.149 1.167-.448 1.652a3.266 3.266 0 0 1-1.19 1.148 3.38 3.38 0 0 1-1.652.406Zm-.112-1.176c.681 0 1.199-.173 1.554-.518.355-.345.532-.845.532-1.498v-.14c0-.644-.177-1.139-.532-1.484-.355-.345-.873-.518-1.554-.518s-1.199.173-1.554.518c-.355.345-.532.84-.532 1.484v.14c0 .644.177 1.143.532 1.498.355.345.873.518 1.554.518Zm6.278 1.176a.912.912 0 0 1-.49-.14 1.016 1.016 0 0 1-.364-.35.983.983 0 0 1-.126-.49c0-.28.094-.513.28-.7a.98.98 0 0 1 .7-.28c.271 0 .5.093.686.28.196.187.294.42.294.7a.901.901 0 0 1-.14.49.899.899 0 0 1-.35.35.864.864 0 0 1-.49.14Zm0-5.74a.985.985 0 0 1-.49-.126 1.14 1.14 0 0 1-.364-.364.983.983 0 0 1-.126-.49c0-.28.094-.513.28-.7a.98.98 0 0 1 .7-.28c.271 0 .5.093.686.28.196.187.294.42.294.7a.901.901 0 0 1-.14.49 1 1 0 0 1-.35.364.933.933 0 0 1-.49.126Zm6.438 5.74c-.476 0-.924-.079-1.344-.238a2.862 2.862 0 0 1-1.12-.826c-.327-.383-.584-.896-.77-1.54-.178-.653-.266-1.465-.266-2.436v-.28c0-.905.088-1.661.266-2.268.186-.616.443-1.106.77-1.47.326-.364.7-.625 1.12-.784.42-.159.868-.238 1.344-.238.476 0 .924.079 1.344.238.42.159.793.42 1.12.784.326.364.578.854.756 1.47.186.607.28 1.363.28 2.268v.28c0 .971-.094 1.783-.28 2.436-.178.644-.43 1.157-.756 1.54a2.87 2.87 0 0 1-1.12.826c-.42.159-.868.238-1.344.238Zm0-1.148c.298 0 .578-.051.84-.154.261-.112.49-.308.686-.588.205-.289.364-.686.476-1.19.121-.513.182-1.167.182-1.96v-.28c0-.971-.103-1.717-.308-2.24-.196-.523-.462-.882-.798-1.078a2.057 2.057 0 0 0-1.078-.294 2.13 2.13 0 0 0-1.092.294c-.327.196-.593.555-.798 1.078-.196.523-.294 1.269-.294 2.24v.28c0 .793.056 1.447.168 1.96.121.504.28.901.476 1.19.205.28.438.476.7.588.27.103.55.154.84.154Zm8.681 1.148c-.476 0-.924-.079-1.344-.238a2.87 2.87 0 0 1-1.12-.826c-.326-.383-.583-.896-.77-1.54-.177-.653-.266-1.465-.266-2.436v-.28c0-.905.089-1.661.266-2.268.187-.616.444-1.106.77-1.47.327-.364.7-.625 1.12-.784.42-.159.868-.238 1.344-.238.476 0 .924.079 1.344.238.42.159.794.42 1.12.784.327.364.579.854.756 1.47.187.607.28 1.363.28 2.268v.28c0 .971-.093 1.783-.28 2.436-.177.644-.429 1.157-.756 1.54-.326.383-.7.658-1.12.826-.42.159-.868.238-1.344.238Zm0-1.148c.299 0 .579-.051.84-.154.262-.112.49-.308.686-.588.206-.289.364-.686.476-1.19.122-.513.182-1.167.182-1.96v-.28c0-.971-.102-1.717-.308-2.24-.196-.523-.462-.882-.798-1.078a2.054 2.054 0 0 0-1.078-.294 2.13 2.13 0 0 0-1.092.294c-.326.196-.592.555-.798 1.078-.196.523-.294 1.269-.294 2.24v.28c0 .793.056 1.447.168 1.96.122.504.28.901.476 1.19.206.28.439.476.7.588.271.103.551.154.84.154Zm8.607-129.882v-2.576h-2.534v-1.148h2.534v-2.576h1.232v2.576h2.534v1.148h-2.534v2.576h-1.232Zm5.234 1.89v-1.148h2.338v-7.21l-2.338 1.666v-1.428l2.366-1.68h1.316v8.652h1.918V122h-5.6Zm8.124.14a.912.912 0 0 1-.49-.14 1.016 1.016 0 0 1-.364-.35.983.983 0 0 1-.126-.49c0-.28.094-.513.28-.7a.98.98 0 0 1 .7-.28c.271 0 .5.093.686.28.196.187.294.42.294.7a.901.901 0 0 1-.14.49.899.899 0 0 1-.35.35.864.864 0 0 1-.49.14Zm0-5.74a.985.985 0 0 1-.49-.126 1.14 1.14 0 0 1-.364-.364.983.983 0 0 1-.126-.49c0-.28.094-.513.28-.7a.98.98 0 0 1 .7-.28c.271 0 .5.093.686.28.196.187.294.42.294.7a.901.901 0 0 1-.14.49 1 1 0 0 1-.35.364.933.933 0 0 1-.49.126Zm6.438 5.74c-.476 0-.924-.079-1.344-.238a2.862 2.862 0 0 1-1.12-.826c-.327-.383-.584-.896-.77-1.54-.178-.653-.266-1.465-.266-2.436v-.28c0-.905.088-1.661.266-2.268.186-.616.443-1.106.77-1.47.326-.364.7-.625 1.12-.784.42-.159.868-.238 1.344-.238.476 0 .924.079 1.344.238.42.159.793.42 1.12.784.326.364.578.854.756 1.47.186.607.28 1.363.28 2.268v.28c0 .971-.094 1.783-.28 2.436-.178.644-.43 1.157-.756 1.54a2.87 2.87 0 0 1-1.12.826c-.42.159-.868.238-1.344.238Zm0-1.148c.298 0 .578-.051.84-.154.261-.112.49-.308.686-.588.205-.289.364-.686.476-1.19.121-.513.182-1.167.182-1.96v-.28c0-.971-.103-1.717-.308-2.24-.196-.523-.462-.882-.798-1.078a2.057 2.057 0 0 0-1.078-.294 2.13 2.13 0 0 0-1.092.294c-.327.196-.593.555-.798 1.078-.196.523-.294 1.269-.294 2.24v.28c0 .793.056 1.447.168 1.96.121.504.28.901.476 1.19.205.28.438.476.7.588.27.103.55.154.84.154Zm8.681 1.148c-.476 0-.924-.079-1.344-.238a2.87 2.87 0 0 1-1.12-.826c-.326-.383-.583-.896-.77-1.54-.177-.653-.266-1.465-.266-2.436v-.28c0-.905.089-1.661.266-2.268.187-.616.444-1.106.77-1.47.327-.364.7-.625 1.12-.784.42-.159.868-.238 1.344-.238.476 0 .924.079 1.344.238.42.159.794.42 1.12.784.327.364.579.854.756 1.47.187.607.28 1.363.28 2.268v.28c0 .971-.093 1.783-.28 2.436-.177.644-.429 1.157-.756 1.54-.326.383-.7.658-1.12.826-.42.159-.868.238-1.344.238Zm0-1.148c.299 0 .579-.051.84-.154.262-.112.49-.308.686-.588.206-.289.364-.686.476-1.19.122-.513.182-1.167.182-1.96v-.28c0-.971-.102-1.717-.308-2.24-.196-.523-.462-.882-.798-1.078a2.054 2.054 0 0 0-1.078-.294 2.13 2.13 0 0 0-1.092.294c-.326.196-.592.555-.798 1.078-.196.523-.294 1.269-.294 2.24v.28c0 .793.056 1.447.168 1.96.122.504.28.901.476 1.19.206.28.439.476.7.588.271.103.551.154.84.154Zm-31.53 109.662v-1.148h4.2v1.148h-4.2Zm5.529 3.346v-1.148h2.338v-7.21l-2.338 1.666v-1.428l2.366-1.68h1.316v8.652h1.918V234h-5.6Zm8.125.14a.907.907 0 0 1-.49-.14 1 1 0 0 1-.364-.35.983.983 0 0 1-.126-.49c0-.28.093-.513.28-.7a.978.978 0 0 1 .7-.28c.27 0 .499.093.686.28.196.187.294.42.294.7a.91.91 0 0 1-.14.49.906.906 0 0 1-.35.35.867.867 0 0 1-.49.14Zm6.437 0c-.476 0-.924-.079-1.344-.238a2.87 2.87 0 0 1-1.12-.826c-.327-.383-.583-.896-.77-1.54-.177-.653-.266-1.465-.266-2.436v-.28c0-.905.089-1.661.266-2.268.187-.616.443-1.106.77-1.47.327-.364.7-.625 1.12-.784.42-.159.868-.238 1.344-.238.476 0 .924.079 1.344.238.42.159.793.42 1.12.784.327.364.579.854.756 1.47.187.607.28 1.363.28 2.268v.28c0 .971-.093 1.783-.28 2.436-.177.644-.429 1.157-.756 1.54a2.87 2.87 0 0 1-1.12.826c-.42.159-.868.238-1.344.238Zm0-1.148c.299 0 .579-.051.84-.154.261-.112.49-.308.686-.588.205-.289.364-.686.476-1.19.121-.513.182-1.167.182-1.96v-.28c0-.971-.103-1.717-.308-2.24-.196-.523-.462-.882-.798-1.078a2.057 2.057 0 0 0-1.078-.294 2.13 2.13 0 0 0-1.092.294c-.327.196-.593.555-.798 1.078-.196.523-.294 1.269-.294 2.24v.28c0 .793.056 1.447.168 1.96.121.504.28.901.476 1.19.205.28.439.476.7.588.271.103.551.154.84.154Zm8.682 1.148c-.476 0-.924-.079-1.344-.238a2.862 2.862 0 0 1-1.12-.826c-.327-.383-.584-.896-.77-1.54-.178-.653-.266-1.465-.266-2.436v-.28c0-.905.088-1.661.266-2.268.186-.616.443-1.106.77-1.47.326-.364.7-.625 1.12-.784.42-.159.868-.238 1.344-.238.476 0 .924.079 1.344.238.42.159.793.42 1.12.784.326.364.578.854.756 1.47.186.607.28 1.363.28 2.268v.28c0 .971-.094 1.783-.28 2.436-.178.644-.43 1.157-.756 1.54a2.87 2.87 0 0 1-1.12.826c-.42.159-.868.238-1.344.238Zm0-1.148c.298 0 .578-.051.84-.154.261-.112.49-.308.686-.588.205-.289.364-.686.476-1.19.121-.513.182-1.167.182-1.96v-.28c0-.971-.103-1.717-.308-2.24-.196-.523-.462-.882-.798-1.078a2.057 2.057 0 0 0-1.078-.294 2.13 2.13 0 0 0-1.092.294c-.327.196-.593.555-.798 1.078-.196.523-.294 1.269-.294 2.24v.28c0 .793.056 1.447.168 1.96.121.504.28.901.476 1.19.205.28.438.476.7.588.27.103.55.154.84.154Zm7.001-4.032c-.653 0-1.19-.21-1.61-.63-.42-.429-.63-.989-.63-1.68v-.14a2.5 2.5 0 0 1 .28-1.204c.196-.345.462-.616.798-.812a2.315 2.315 0 0 1 1.162-.294c.439 0 .826.098 1.162.294.336.196.598.467.784.812.196.345.294.747.294 1.204v.14c0 .691-.21 1.251-.63 1.68-.42.42-.956.63-1.61.63Zm0-1.064c.318 0 .57-.103.756-.308.187-.205.28-.518.28-.938v-.14c0-.42-.093-.733-.28-.938-.186-.205-.438-.308-.756-.308-.317 0-.569.103-.756.308-.186.205-.28.518-.28.938v.14c0 .42.094.733.28.938.187.205.439.308.756.308Zm-.84 6.244 6.72-9.8h1.4l-6.72 9.8h-1.4Zm7.28.14c-.653 0-1.19-.21-1.61-.63-.42-.429-.63-.989-.63-1.68v-.14a2.5 2.5 0 0 1 .28-1.204c.196-.345.462-.616.798-.812a2.315 2.315 0 0 1 1.162-.294c.439 0 .826.098 1.162.294.336.196.598.467.784.812.196.345.294.747.294 1.204v.14c0 .691-.21 1.251-.63 1.68-.42.42-.956.63-1.61.63Zm0-1.064c.318 0 .57-.103.756-.308.187-.205.28-.518.28-.938v-.14c0-.42-.093-.733-.28-.938-.186-.205-.438-.308-.756-.308-.317 0-.569.103-.756.308-.186.205-.28.518-.28.938v.14c0 .42.094.733.28.938.187.205.439.308.756.308Z"/><path stroke="#F044FF" d="m24 125.056 4.292 14.028c4.291 14.028 12.875 42.084 21.458 44.923 8.583 2.839 17.167-19.54 25.75-28.812 8.583-9.273 17.167-5.439 25.75 1.847 8.583 7.286 17.167 18.025 25.75 31.854 8.583 13.829 17.167 30.748 25.75 28.239 8.583-2.509 17.167-24.447 25.75-28.932 8.583-4.485 17.167 8.483 25.75 13.301 8.583 4.818 17.167 1.486 25.75.876 8.583-.61 17.167 1.503 25.75-2.139 8.583-3.643 17.167-13.041 25.75-11.029 8.583 2.011 17.167 15.433 25.75 20.926 8.583 5.493 17.167 3.058 25.75-11.149 8.583-14.206 17.167-40.183 25.75-57.446 8.583-17.263 17.167-25.811 25.75-12.112 8.583 13.698 17.167 49.644 25.75 61.147 8.583 11.503 17.167-1.437 25.75-3.116 8.583-1.678 17.167 7.905 25.75-4.036 8.583-11.942 17.167-45.407 25.75-57.149 8.583-11.742 17.167-1.761 25.75-3.093 8.583-1.332 17.167-13.976 25.75-9.051 8.583 4.926 17.167 27.422 25.75 39.837 8.583 12.416 17.167 14.752 25.75 11.368 8.583-3.383 17.167-12.486 25.75-14.917 8.583-2.43 17.167 1.813 21.458 3.934l4.292 2.121"/><path stroke="#FFAA2B" d="m24 192.198 4.292-1.338c4.291-1.339 12.875-4.016 21.458-14.268 8.583-10.252 17.167-28.08 25.75-31.039 8.583-2.958 17.167 8.953 25.75 11.433 8.583 2.481 17.167-4.469 25.75 2.704 8.583 7.173 17.167 28.467 25.75 24.982 8.583-3.486 17.167-31.752 25.75-27.435 8.583 4.318 17.167 41.219 25.75 53.115 8.583 11.896 17.167-1.213 25.75-2.865 8.583-1.652 17.167 8.153 25.75-2.282 8.583-10.434 17.167-41.108 25.75-37.961 8.583 3.147 17.167 40.115 25.75 43.865 8.583 3.749 17.167-25.721 25.75-40.528 8.583-14.807 17.167-14.951 25.75-.965 8.583 13.986 17.167 42.104 25.75 36.525 8.583-5.579 17.167-44.854 25.75-63.342 8.583-18.488 17.167-16.19 25.75-14.681 8.583 1.508 17.167 2.226 25.75 5.161 8.583 2.935 17.167 8.086 25.75 3.63 8.583-4.456 17.167-18.519 25.75-22.623 8.583-4.105 17.167 1.749 25.75 15.687 8.583 13.937 17.167 35.958 25.75 53.14 8.583 17.181 17.167 29.524 25.75 21.589 8.583-7.935 17.167-36.148 25.75-35.212 8.583.935 17.167 31.019 21.458 46.062L642 230.594"/><path stroke="#8085FF" d="m24 172.328 4.292 3.05c4.291 3.05 12.875 9.151 21.458 14.908 8.583 5.758 17.167 11.172 25.75 10.996 8.583-.176 17.167-5.944 25.75-14.146 8.583-8.202 17.167-18.838 25.75-18.986 8.583-.148 17.167 10.192 25.75 10.292 8.583.101 17.167-10.039 25.75-8.508 8.583 1.53 17.167 14.731 25.75 25.003 8.583 10.272 17.167 17.617 25.75 22.571 8.583 4.954 17.167 7.518 25.75-2.55 8.583-10.067 17.167-32.767 25.75-45.022 8.583-12.255 17.167-14.065 25.75-11.38 8.583 2.686 17.167 9.866 25.75 2.653 8.583-7.213 17.167-28.821 25.75-26.696 8.583 2.125 17.167 27.982 25.75 39.338 8.583 11.357 17.167 8.213 25.75 2.532 8.583-5.68 17.167-13.897 25.75-11.55 8.583 2.347 17.167 15.257 25.75 23.132 8.583 7.876 17.167 10.716 25.75 8.625 8.583-2.091 17.167-9.115 25.75-13.257 8.583-4.141 17.167-5.402 25.75-16.218 8.583-10.816 17.167-31.189 25.75-34.874 8.583-3.686 17.167 9.314 25.75 4.654 8.583-4.661 17.167-26.983 25.75-23.535 8.583 3.448 17.167 32.667 21.458 47.276L642 175.245"/></svg>